<?xml version="1.0" encoding="UTF-8"?>
<svg width="28px" height="28px" viewBox="0 0 28 28" version="1.1" xmlns="http://www.w3.org/2000/svg" xmlns:xlink="http://www.w3.org/1999/xlink">
    <!-- Generator: Sketch 54.1 (76490) - https://sketchapp.com -->
    <title>Shape</title>
    <desc>Created with Sketch.</desc>
    <g id="Page-1" stroke="none" stroke-width="1" fill="none" fill-rule="evenodd">
        <g id="Logged-In" transform="translate(-931.000000, -28.000000)" fill="#FFFFFF" fill-rule="nonzero">
            <g id="face" transform="translate(928.000000, 25.000000)">
                <path d="M12.8,16.65 C11.834,16.65 11.05,17.434 11.05,18.4 C11.05,19.366 11.834,20.15 12.8,20.15 C13.766,20.15 14.55,19.366 14.55,18.4 C14.55,17.434 13.766,16.65 12.8,16.65 Z M21.2,16.65 C20.234,16.65 19.45,17.434 19.45,18.4 C19.45,19.366 20.234,20.15 21.2,20.15 C22.166,20.15 22.95,19.366 22.95,18.4 C22.95,17.434 22.166,16.65 21.2,16.65 Z M17,3 C9.272,3 3,9.272 3,17 C3,24.728 9.272,31 17,31 C24.728,31 31,24.728 31,17 C31,9.272 24.728,3 17,3 Z M17,28.2 C10.826,28.2 5.8,23.174 5.8,17 C5.8,16.594 5.828,16.188 5.87,15.796 C9.174,14.326 11.792,11.624 13.164,8.278 C15.698,11.862 19.87,14.2 24.588,14.2 C25.68,14.2 26.73,14.074 27.738,13.836 C28.032,14.83 28.2,15.894 28.2,17 C28.2,23.174 23.174,28.2 17,28.2 Z" id="Shape"></path>
            </g>
        </g>
    </g>
</svg>