<?xml version="1.0" encoding="UTF-8"?>
<svg width="67px" height="60px" viewBox="0 0 67 60" version="1.1" xmlns="http://www.w3.org/2000/svg" xmlns:xlink="http://www.w3.org/1999/xlink">
    <!-- Generator: Sketch 54.1 (76490) - https://sketchapp.com -->
    <title>bread</title>
    <desc>Created with Sketch.</desc>
    <defs>
        <filter x="-29.1%" y="-33.3%" width="158.2%" height="166.7%" filterUnits="objectBoundingBox" id="filter-1">
            <feOffset dx="0" dy="2" in="SourceAlpha" result="shadowOffsetOuter1"></feOffset>
            <feGaussianBlur stdDeviation="3" in="shadowOffsetOuter1" result="shadowBlurOuter1"></feGaussianBlur>
            <feColorMatrix values="0 0 0 0 0   0 0 0 0 0   0 0 0 0 0  0 0 0 0.3 0" type="matrix" in="shadowBlurOuter1" result="shadowMatrixOuter1"></feColorMatrix>
            <feMerge>
                <feMergeNode in="shadowMatrixOuter1"></feMergeNode>
                <feMergeNode in="SourceGraphic"></feMergeNode>
            </feMerge>
        </filter>
    </defs>
    <g id="Page-1" stroke="none" stroke-width="1" fill="none" fill-rule="evenodd">
        <g id="Not-Logged-In" transform="translate(-22.000000, -12.000000)" fill-rule="nonzero">
            <g id="bread" filter="url(#filter-1)" transform="translate(28.000000, 16.000000)">
                <path d="M42.573471,48 L12.3182678,48 C9.04106135,48 6.37523648,45.3741685 6.37523648,42.1463415 L6.37523648,21.1638026 C2.2546005,18.8917683 0,15.9553769 0,12.8248337 C0,3.54878049 16.9617463,0 27.5,0 C38.1855392,0 55,3.63234476 55,12.8248337 C55,15.9848947 52.7067948,18.9424889 48.5165024,21.2228381 L48.5165024,42.1463415 C48.5165024,45.3741685 45.8506775,48 42.573471,48 Z" id="Path" fill="#AC6A09"></path>
                <path d="M27,0 L27,48 L42.3225801,48 C45.6663813,48 48.3856009,45.3741685 48.3856009,42.1463415 L48.3856009,21.2232539 C52.6609231,18.9424889 55,15.9848947 55,12.8248337 C55,3.6473115 37.9034202,0.0116407982 27,0 L27,0 Z" id="Path" fill="#AC6A09"></path>
                <path d="M11.9800211,45 C10.5062532,45 9.30731183,43.8240189 9.30731183,42.3785166 L9.30731183,21.7056625 C9.30731183,20.5681845 8.67878088,19.5163143 7.66707033,18.9608875 C4.70126798,17.332291 3,15.3383252 3,13.4897698 C3,7.21090755 17.6255903,4 27,4 C37.1760564,4 51,7.51360688 51,13.4897698 C51,15.3596247 49.2655204,17.3716132 46.2420128,19.01045 C45.2203386,19.5642384 44.5855806,20.6189758 44.5855806,21.7638267 L44.5855806,42.3785166 C44.5855806,43.8240189 43.3866392,45 41.9132864,45 L11.9800211,45 Z" id="Path" fill="#FFF1BE"></path>
                <path d="M52,13.4897698 C52,15.3592152 50.1896431,17.3716132 47.0322457,19.01045 C45.9664886,19.5642384 45.3033702,20.6189758 45.3033702,21.7642363 L45.3033702,42.3785166 C45.3033702,43.8244285 44.0525467,45 42.5135051,45 L27,45 L27,4 C37.7160813,4.01187857 52,7.56357896 52,13.4897698 L52,13.4897698 Z" id="Path" fill="#E9BD50"></path>
                <path d="M15.4998058,36 C14.6726214,36 14,35.3269531 14,34.5 C14,33.6730469 14.6730097,33 15.4998058,33 C16.3269903,33 17,33.6730469 17,34.5 C17,35.3269531 16.3269903,36 15.4998058,36 Z" id="Path" fill="#FFD84B"></path>
                <path d="M19.4998058,41 C18.6726213,41 18,40.3269531 18,39.5 C18,38.6730469 18.6730097,38 19.4998058,38 C20.3269903,38 21,38.6730469 21,39.5 C21,40.3269531 20.3269903,41 19.4998058,41 Z" id="Path" fill="#FFD84B"></path>
                <path d="M34.5001942,27 C33.6730098,27 33,26.3269531 33,25.5 C33,24.6730469 33.6730098,24 34.5001942,24 C35.3273787,24 36,24.6730469 36,25.5 C36,26.3269531 35.3273787,27 34.5001942,27 L34.5001942,27 Z" id="Path" fill="#AC6A09"></path>
                <path d="M39.5001942,32 C38.6730098,32 38,31.3269531 38,30.5 C38,29.6730469 38.6730098,29 39.5001942,29 C40.3273787,29 41,29.6730469 41,30.5 C41,31.3269531 40.3273787,32 39.5001942,32 L39.5001942,32 Z" id="Path-Copy" fill="#AC6A09"></path>
                <path d="M33.5001942,37 C32.6730098,37 32,36.3269531 32,35.5 C32,34.6730469 32.6730098,34 33.5001942,34 C34.3273787,34 35,34.6730469 35,35.5 C35,36.3269531 34.3273787,37 33.5001942,37 L33.5001942,37 Z" id="Path-Copy-2" fill="#AC6A09"></path>
            </g>
        </g>
    </g>
</svg>