<?xml version="1.0" encoding="UTF-8"?>
<svg width="47px" height="42px" viewBox="0 0 47 42" version="1.1" xmlns="http://www.w3.org/2000/svg" xmlns:xlink="http://www.w3.org/1999/xlink">
    <!-- Generator: Sketch 54.1 (76490) - https://sketchapp.com -->
    <title>toast</title>
    <desc>Created with Sketch.</desc>
    <defs>
        <filter x="-45.7%" y="-53.3%" width="191.4%" height="206.7%" filterUnits="objectBoundingBox" id="filter-1">
            <feOffset dx="0" dy="2" in="SourceAlpha" result="shadowOffsetOuter1"></feOffset>
            <feGaussianBlur stdDeviation="3" in="shadowOffsetOuter1" result="shadowBlurOuter1"></feGaussianBlur>
            <feColorMatrix values="0 0 0 0 0   0 0 0 0 0   0 0 0 0 0  0 0 0 0.3 0" type="matrix" in="shadowBlurOuter1" result="shadowMatrixOuter1"></feColorMatrix>
            <feMerge>
                <feMergeNode in="shadowMatrixOuter1"></feMergeNode>
                <feMergeNode in="SourceGraphic"></feMergeNode>
            </feMerge>
        </filter>
    </defs>
    <g id="Page-1" stroke="none" stroke-width="1" fill="none" fill-rule="evenodd">
        <g id="Not-Logged-In" transform="translate(-339.000000, -169.000000)" fill-rule="nonzero">
            <g id="Toast-Post" transform="translate(325.000000, 153.000000)">
                <g id="toast" filter="url(#filter-1)" transform="translate(20.000000, 20.000000)">
                    <path d="M27.0922088,30 L7.83889771,30 C5.75340268,30 4.05696867,28.3588553 4.05696867,26.3414634 L4.05696867,13.2273766 C1.43474577,11.8073552 0,9.97211055 0,8.01552106 C0,2.2179878 10.7938385,0 17.5,0 C24.2998886,0 35,2.27021548 35,8.01552106 C35,9.99055916 33.5406876,11.8390556 30.8741379,13.2642738 L30.8741379,26.3414634 C30.8741379,28.3588553 29.1777039,30 27.0922088,30 Z" id="Path" fill="#AC6A09"></path>
                    <path d="M17,0 L17,30 L26.8502301,30 C28.9998165,30 30.7478863,28.3588553 30.7478863,26.3414634 L30.7478863,13.2645337 C33.4963077,11.8390556 35,9.99055916 35,8.01552106 C35,2.27956969 24.0093415,0.00727549889 17,0 L17,0 Z" id="Path" fill="#AC6A09"></path>
                    <path d="M8.6125132,28 C7.69140825,28 6.94206989,27.2542559 6.94206989,26.3375959 L6.94206989,13.2279811 C6.94206989,12.5066536 6.54923805,11.839614 5.91691896,11.4873921 C4.06329249,10.4546235 3,9.19015743 3,8.01790281 C3,4.03618528 12.140994,2 18,2 C24.3600353,2 33,4.22814095 33,8.01790281 C33,9.20366447 31.9159502,10.4795596 30.026258,11.518822 C29.3877117,11.8700048 28.9909879,12.5388627 28.9909879,13.2648657 L28.9909879,26.3375959 C28.9909879,27.2542559 28.2416495,28 27.320804,28 L8.6125132,28 Z" id="Path" fill="#E9BD50"></path>
                    <path d="M33,8.01790281 C33,9.20340473 31.8413716,10.4795596 29.8206373,11.518822 C29.1385527,11.8700048 28.7141569,12.5388627 28.7141569,13.2651255 L28.7141569,26.3375959 C28.7141569,27.2545156 27.9136299,28 26.9286433,28 L17,28 L17,2 C23.8582921,2.00753275 33,4.25983056 33,8.01790281 L33,8.01790281 Z" id="Path" fill="#E9BD50"></path>
                    <path d="M9.99987053,22 C9.44841424,22 9,21.5513021 9,21 C9,20.4486979 9.44867313,20 9.99987053,20 C10.5513269,20 11,20.4486979 11,21 C11,21.5513021 10.5513269,22 9.99987053,22 Z" id="Path" fill="#AC6A09"></path>
                    <path d="M12.9998705,25 C12.4484142,25 12,24.5513021 12,24 C12,23.4486979 12.4486731,23 12.9998705,23 C13.5513269,23 14,23.4486979 14,24 C14,24.5513021 13.5513269,25 12.9998705,25 Z" id="Path" fill="#AC6A09"></path>
                    <path d="M22.0001294,17 C21.4486732,17 21,16.5513021 21,16 C21,15.4486979 21.4486732,15 22.0001294,15 C22.5515858,15 23,15.4486979 23,16 C23,16.5513021 22.5515858,17 22.0001294,17 L22.0001294,17 Z" id="Path" fill="#AC6A09"></path>
                    <path d="M25.0001294,20 C24.4486732,20 24,19.5513021 24,19 C24,18.4486979 24.4486732,18 25.0001294,18 C25.5515858,18 26,18.4486979 26,19 C26,19.5513021 25.5515858,20 25.0001294,20 L25.0001294,20 Z" id="Path-Copy" fill="#AC6A09"></path>
                    <path d="M22.0001294,23 C21.4486732,23 21,22.5513021 21,22 C21,21.4486979 21.4486732,21 22.0001294,21 C22.5515858,21 23,21.4486979 23,22 C23,22.5513021 22.5515858,23 22.0001294,23 L22.0001294,23 Z" id="Path-Copy-2" fill="#AC6A09"></path>
                </g>
            </g>
        </g>
    </g>
</svg>